<?xml version="1.0" encoding="UTF-8"?>
<svg id="Layer_2" data-name="Layer 2" xmlns="http://www.w3.org/2000/svg" viewBox="0 0 126.85 126.85">
  <defs>
    <style>
      .cls-1 {
        fill: #2b3147;
        stroke-width: 0px;
      }
    </style>
  </defs>
  <g id="Camada_1" data-name="Camada 1">
    <g>
      <path class="cls-1" d="M95.18,20.11H28.59v13.51h59.13l7.46-13.51ZM29.47,32.73v-11.73h64.21l-6.49,11.73H29.47Z"/>
      <path class="cls-1" d="M108.28,18.58C96.3,6.6,80.37,0,63.43,0S30.56,6.6,18.58,18.58C6.6,30.56,0,46.49,0,63.43s6.6,32.87,18.58,44.85c11.98,11.98,27.91,18.58,44.85,18.58s32.87-6.6,44.85-18.58c11.98-11.98,18.58-27.91,18.58-44.85s-6.6-32.87-18.58-44.85ZM63.43,125.97c-16.71,0-32.41-6.5-44.22-18.32C7.39,95.84.89,80.13.89,63.43S7.39,31.02,19.2,19.2C31.01,7.39,46.72.89,63.43.89s32.41,6.5,44.22,18.32c11.81,11.81,18.32,27.52,18.32,44.22s-6.51,32.41-18.32,44.22c-11.81,11.81-27.52,18.32-44.22,18.32Z"/>
      <path class="cls-1" d="M31.81,106.75h66.46v-13.49h-59l-7.46,13.49ZM97.38,94.15v11.71H33.31l6.48-11.71h57.6Z"/>
      <path class="cls-1" d="M55.95,91.07l30.56-55.27h-15.47l-30.56,55.27h15.47ZM85,36.69l-29.58,53.5h-13.45l29.58-53.5h13.45Z"/>
    </g>
  </g>
</svg>