<?xml version="1.0" encoding="UTF-8"?>
<svg id="Layer_2" data-name="Layer 2" xmlns="http://www.w3.org/2000/svg" viewBox="0 0 770.53 184.72">
  <defs>
    <style>
      .cls-1 {
        fill: #4e89aa;
      }

      .cls-1, .cls-2 {
        stroke-width: 0px;
      }

      .cls-2 {
        fill: #fff;
      }
    </style>
  </defs>
  <g id="Camada_1" data-name="Camada 1">
    <g>
      <g>
        <path class="cls-2" d="M280.23.19c19.19,0,34.69,15.51,34.69,34.69,0,9.3-3.68,17.83-9.69,24.03,8.53,6.4,13.95,16.67,13.95,28.1,0,19.57-15.89,35.27-35.27,35.47h-54.46V.19h50.78ZM247.47,18.22v33.34h32.75c9.3,0,16.67-7.56,16.67-16.67s-7.37-16.67-16.67-16.67h-32.75ZM283.91,104.27c9.5,0,17.25-7.75,17.25-17.25s-7.75-17.25-17.25-17.25h-36.44v34.5h36.44Z"/>
        <polygon class="cls-2" points="382.45 104.47 382.43 104.47 421.97 36.24 461.5 104.47 461.48 104.47 471.94 122.49 492.9 122.49 421.97 .19 351.03 122.49 372 122.49 382.45 104.47"/>
        <path class="cls-2" d="M566.82,104.47h62.6v18.03h-93.22l57.76-104.47h-62.8V0h93.42l-57.76,104.47Z"/>
        <g>
          <polygon class="cls-2" points="700.07 104.47 699.98 104.47 699.98 70.55 700.07 70.55 700.07 52.52 699.98 52.52 699.98 18.22 700.07 18.22 700.07 0 681.96 0 681.96 122.49 700.07 122.49 700.07 104.47"/>
          <rect class="cls-2" x="707.44" y="104.47" width="63.09" height="18.03"/>
          <rect class="cls-2" x="707.44" y="52.52" width="63.09" height="18.03"/>
          <rect class="cls-2" x="707.44" y="0" width="63.09" height="18.22"/>
        </g>
      </g>
      <path class="cls-1" d="M88.83,1.07C39.77,1.07,0,40.84,0,89.9s39.77,88.83,88.83,88.83,88.83-39.77,88.83-88.83S137.89,1.07,88.83,1.07ZM40.32,29.42h92.24l-9.84,17.8H40.32v-17.8ZM120.32,51.56l-42.4,76.7h-20.39l42.4-76.7h20.4ZM137.34,150.37H45.29l9.82-17.77h82.22v17.77Z"/>
      <g>
        <path class="cls-2" d="M243.39,173.62h-8.92l-1.77,4.34h-3.25l8.08-19.1h2.81l8.08,19.1h-3.25l-1.77-4.34ZM242.3,170.97l-2.46-5.98c-.41-1.04-.87-2.48-.9-2.48h-.03s-.49,1.45-.9,2.48l-2.46,5.98h6.74Z"/>
        <path class="cls-2" d="M266.56,177.96l-4.04-6.85c-.19.03-.38.03-.6.03h-3.22v6.82h-3.03v-19.1h6.25c4.58,0,7.34,2.43,7.34,6.19,0,2.67-1.39,4.61-3.82,5.51l4.53,7.39h-3.41ZM262.27,168.46c2.59,0,3.85-1.53,3.85-3.41s-1.36-3.36-3.85-3.36h-3.57v6.77h3.57Z"/>
        <path class="cls-2" d="M284.7,178.23c-4.75-.71-8.35-4.61-8.35-9.82,0-5.76,4.42-9.93,9.9-9.93s9.93,4.17,9.93,9.93c0,5.24-3.68,9.17-8.46,9.82v3.33h-3.03v-3.33ZM293.05,168.41c0-4.17-2.89-6.96-6.79-6.96s-6.79,2.78-6.79,6.96,2.87,6.96,6.79,6.96,6.79-2.84,6.79-6.96Z"/>
        <path class="cls-2" d="M320.2,158.86v11c0,5.51-3.03,8.49-8.05,8.49s-8.02-2.97-8.02-8.49v-11h3.03v10.97c0,3.85,1.69,5.7,4.99,5.7s5.05-1.86,5.05-5.7v-10.97h3Z"/>
        <path class="cls-2" d="M329.1,177.96v-19.1h3.03v19.1h-3.03Z"/>
        <path class="cls-2" d="M355.29,158.86v2.84h-6.19v16.26h-3v-16.26h-6.17v-2.84h15.36Z"/>
        <path class="cls-2" d="M376.41,175.12v2.84h-13.29v-19.1h13.12v2.84h-10.1v4.97h8.05v2.67h-8.05v5.78h10.26Z"/>
        <path class="cls-2" d="M398.95,158.86v2.84h-6.19v16.26h-3v-16.26h-6.17v-2.84h15.36Z"/>
        <path class="cls-2" d="M422.38,158.86v11c0,5.51-3.03,8.49-8.05,8.49s-8.02-2.97-8.02-8.49v-11h3.03v10.97c0,3.85,1.69,5.7,4.99,5.7s5.05-1.86,5.05-5.7v-10.97h3Z"/>
        <path class="cls-2" d="M442.17,177.96l-4.04-6.85c-.19.03-.38.03-.6.03h-3.22v6.82h-3.03v-19.1h6.25c4.58,0,7.34,2.43,7.34,6.19,0,2.67-1.39,4.61-3.82,5.51l4.53,7.39h-3.41ZM437.88,168.46c2.59,0,3.85-1.53,3.85-3.41s-1.36-3.36-3.85-3.36h-3.58v6.77h3.58Z"/>
        <path class="cls-2" d="M465.82,173.62h-8.92l-1.77,4.34h-3.25l8.08-19.1h2.81l8.08,19.1h-3.25l-1.77-4.34ZM464.73,170.97l-2.46-5.98c-.41-1.04-.87-2.48-.9-2.48h-.03s-.49,1.45-.9,2.48l-2.46,5.98h6.74Z"/>
        <path class="cls-2" d="M503.5,175.12v2.84h-13.29v-19.1h13.12v2.84h-10.09v4.97h8.05v2.67h-8.05v5.78h10.26Z"/>
        <path class="cls-2" d="M550.27,164.32c-1.14-1.77-3.3-2.87-5.59-2.87-3.96,0-6.8,2.84-6.8,6.96s2.95,6.93,6.8,6.93c2.56,0,4.85-1.36,5.95-3.38l3.03.82c-1.61,3.38-4.99,5.57-8.98,5.57-5.49,0-9.91-4.17-9.91-9.93s4.42-9.93,9.91-9.93c3.74,0,6.96,1.99,8.68,5.02l-3.08.82Z"/>
        <path class="cls-2" d="M570.3,158.48c5.48,0,9.93,4.17,9.93,9.93s-4.45,9.93-9.93,9.93-9.91-4.17-9.91-9.93,4.42-9.93,9.91-9.93ZM570.3,175.37c3.9,0,6.79-2.84,6.79-6.96s-2.89-6.96-6.79-6.96-6.8,2.78-6.8,6.96,2.87,6.96,6.8,6.96Z"/>
        <path class="cls-2" d="M604.54,158.86v19.1h-2.84l-6.96-9.39c-1.69-2.32-3.33-4.69-3.36-4.69h-.03s.06,2.56.06,5.98v8.1h-3.03v-19.1h2.84l7.01,9.41c1.36,1.86,3.27,4.53,3.3,4.53h.03s-.06-2.81-.06-5.81v-8.13h3.03Z"/>
        <path class="cls-2" d="M624.22,164.42c-.44-2.13-2.24-3.33-4.28-3.33s-3.57,1.04-3.57,2.56c0,1.83,2.4,2.43,4.86,3.19,2.73.87,6.14,2.21,6.14,5.78,0,3.3-2.86,5.7-7.12,5.7s-6.74-2.35-7.56-5.68l2.89-.79c.36,1.99,2.02,3.76,4.78,3.76,2.43,0,3.84-1.25,3.84-2.89,0-2.37-2.95-2.87-5.65-3.77-2.24-.76-5.27-1.83-5.27-5.16,0-2.97,2.87-5.35,6.8-5.35,3.55,0,6.33,2.1,7.04,5.16l-2.89.79Z"/>
        <path class="cls-2" d="M648.72,158.86v2.84h-6.19v16.26h-3v-16.26h-6.17v-2.84h15.36Z"/>
        <path class="cls-2" d="M667.44,177.96l-4.04-6.85c-.19.03-.38.03-.6.03h-3.22v6.82h-3.03v-19.1h6.25c4.58,0,7.34,2.43,7.34,6.19,0,2.67-1.39,4.61-3.82,5.51l4.53,7.39h-3.41ZM663.15,168.46c2.59,0,3.85-1.53,3.85-3.41s-1.36-3.36-3.85-3.36h-3.57v6.77h3.57Z"/>
        <path class="cls-2" d="M694.4,158.86v11c0,5.51-3.03,8.49-8.05,8.49s-8.02-2.97-8.02-8.49v-11h3.03v10.97c0,3.85,1.69,5.7,4.99,5.7s5.05-1.86,5.05-5.7v-10.97h3Z"/>
        <path class="cls-2" d="M721.24,172.77c-1.53,3.22-4.67,5.35-8.41,5.54l-.41,1.06c1.58-.03,2.89.98,2.89,2.65,0,1.83-1.36,2.7-3.03,2.7h-2.46l.65-1.66h1.8c.82,0,1.28-.44,1.28-1.01,0-.63-.52-1.07-1.28-1.07h-2.13l.95-2.7c-4.94-.55-8.76-4.53-8.76-9.88,0-5.76,4.42-9.93,9.91-9.93,3.74,0,6.96,1.99,8.68,5.02l-3.08.82c-1.14-1.77-3.3-2.87-5.59-2.87-3.96,0-6.8,2.84-6.8,6.96s2.95,6.93,6.8,6.93c2.56,0,4.85-1.36,5.95-3.38l3.03.82Z"/>
        <path class="cls-2" d="M740.26,173.62h-8.92l-1.78,4.34h-3.25l8.08-19.1h2.81l8.08,19.1h-3.25l-1.77-4.34ZM741.27,154.14c0,1.91-1.45,3.3-3.44,3.3-1.78,0-2.65-1.58-3.87-1.58-.77,0-1.31.52-1.31,1.23h-2.37c0-1.91,1.45-3.3,3.44-3.3,1.86,0,2.67,1.61,3.87,1.61.74,0,1.28-.55,1.28-1.26h2.4ZM739.17,170.97l-2.46-5.98c-.41-1.04-.87-2.48-.9-2.48h-.03s-.49,1.45-.9,2.48l-2.46,5.98h6.74Z"/>
        <path class="cls-2" d="M760.37,158.48c5.49,0,9.93,4.17,9.93,9.93s-4.45,9.93-9.93,9.93-9.9-4.17-9.9-9.93,4.42-9.93,9.9-9.93ZM760.37,175.37c3.9,0,6.8-2.84,6.8-6.96s-2.89-6.96-6.8-6.96-6.79,2.78-6.79,6.96,2.86,6.96,6.79,6.96Z"/>
      </g>
    </g>
  </g>
</svg>